<svg width="12" height="12" viewBox="0 0 12 12" fill="none" xmlns="http://www.w3.org/2000/svg">
<g id="Group 1">
<path id="Vector 135" d="M11 6C11 8.76142 8.76142 11 6 11C3.23858 11 1 8.76142 1 6C1 3.23858 3.23858 1 6 1C8.76142 1 11 3.23858 11 6Z" stroke="black" stroke-opacity="0.8"/>
<path id="&#209;&#129;" d="M5.76 9.325C5.23867 9.325 4.76717 9.21383 4.3455 8.9915C3.9315 8.7615 3.60183 8.4165 3.3565 7.9565C3.11883 7.4965 3 6.91767 3 6.22V5.99C3 5.33067 3.13033 4.77867 3.391 4.334C3.65167 3.88933 3.99283 3.55583 4.4145 3.3335C4.83617 3.11117 5.28467 3 5.76 3C6.243 3 6.657 3.08817 7.002 3.2645C7.35467 3.43317 7.63833 3.667 7.853 3.966C8.06767 4.25733 8.21333 4.587 8.29 4.955H7.255C7.13233 4.66367 6.95983 4.41833 6.7375 4.219C6.52283 4.01967 6.197 3.92 5.76 3.92C5.461 3.92 5.18117 3.99283 4.9205 4.1385C4.65983 4.2765 4.44517 4.49883 4.2765 4.8055C4.1155 5.1045 4.035 5.49933 4.035 5.99V6.22C4.035 6.74133 4.1155 7.163 4.2765 7.485C4.44517 7.807 4.65983 8.04083 4.9205 8.1865C5.18117 8.33217 5.461 8.405 5.76 8.405C6.13567 8.405 6.45 8.313 6.703 8.129C6.96367 7.945 7.14767 7.692 7.255 7.37H8.29C8.198 7.76867 8.03317 8.1175 7.7955 8.4165C7.55783 8.70783 7.2665 8.934 6.9215 9.095C6.5765 9.24833 6.18933 9.325 5.76 9.325Z" fill="black" fill-opacity="0.8"/>
</g>
</svg>
