<svg width="14" height="8" viewBox="0 0 14 8" fill="none" xmlns="http://www.w3.org/2000/svg">
<mask id="path-1-inside-1_2281_1275" fill="white">
<path d="M7 6.09386L13.1054 0.152597C13.1546 0.103682 13.213 0.0650103 13.2772 0.0388202C13.3415 0.0126302 13.4103 -0.00055826 13.4797 1.81075e-05C13.549 0.000594475 13.6176 0.0149238 13.6814 0.0421777C13.7452 0.0694316 13.803 0.109069 13.8514 0.158795C13.8997 0.208521 13.9378 0.267349 13.9633 0.331874C13.9888 0.3964 14.0012 0.465342 13.9999 0.534711C13.9986 0.60408 13.9835 0.672497 13.9556 0.736006C13.9276 0.799514 13.8874 0.856851 13.8372 0.904699L7.36589 7.20137C7.26794 7.29668 7.13666 7.35 7 7.35C6.86334 7.35 6.73206 7.29668 6.63411 7.20137L0.162841 0.904699C0.112601 0.856851 0.0723495 0.799514 0.0444145 0.736006C0.0164785 0.672497 0.00141525 0.60408 9.44138e-05 0.534711C-0.00122643 0.465342 0.0112228 0.3964 0.0367212 0.331874C0.0622187 0.267349 0.100259 0.208521 0.148641 0.158795C0.197023 0.109069 0.254787 0.0694316 0.318589 0.0421777C0.38239 0.0149238 0.450962 0.000594475 0.520337 1.81075e-05C0.589713 -0.00055826 0.658515 0.0126302 0.72276 0.0388202C0.787005 0.0650103 0.845419 0.103682 0.894621 0.152597L7 6.09386Z"/>
</mask>
<path d="M7 6.09386L5.37271 7.7661L7 9.34964L8.62729 7.7661L7 6.09386ZM13.1054 0.152597L14.7327 1.82484L14.7416 1.81613L14.7505 1.80732L13.1054 0.152597ZM13.8372 0.904699L12.2279 -0.784943L12.2189 -0.776331L12.21 -0.767622L13.8372 0.904699ZM7.36589 7.20137L8.99304 8.87374L8.99309 8.87369L7.36589 7.20137ZM6.63411 7.20137L5.00691 8.87369L5.00696 8.87374L6.63411 7.20137ZM0.162841 0.904699L1.79004 -0.767622L1.78109 -0.776331L1.77205 -0.784943L0.162841 0.904699ZM0.894621 0.152597L-0.750472 1.80732L-0.741616 1.81613L-0.732666 1.82484L0.894621 0.152597ZM8.62729 7.7661L14.7327 1.82484L11.4781 -1.51964L5.37271 4.42162L8.62729 7.7661ZM14.7505 1.80732C14.5809 1.97593 14.3795 2.10923 14.1581 2.19951L12.3964 -2.12187C12.0465 -1.97921 11.7283 -1.76857 11.4603 -1.50213L14.7505 1.80732ZM14.1581 2.19951C13.9366 2.28979 13.6994 2.33526 13.4603 2.33327L13.499 -2.33323C13.1211 -2.33637 12.7464 -2.26453 12.3964 -2.12187L14.1581 2.19951ZM13.4603 2.33327C13.2211 2.33128 12.9847 2.28189 12.7648 2.18794L14.598 -2.10358C14.2505 -2.25204 13.8769 -2.3301 13.499 -2.33323L13.4603 2.33327ZM12.7648 2.18794C12.5449 2.09399 12.3458 1.95735 12.179 1.78596L15.5237 -1.46837C15.2602 -1.73922 14.9456 -1.95512 14.598 -2.10358L12.7648 2.18794ZM12.179 1.78596C12.0122 1.61456 11.8811 1.4118 11.7932 1.18939L16.1333 -0.525645C15.9944 -0.877099 15.7872 -1.19752 15.5237 -1.46837L12.179 1.78596ZM11.7932 1.18939C11.7053 0.966995 11.6624 0.72938 11.667 0.490297L16.3328 0.579125C16.34 0.201304 16.2722 -0.174196 16.1333 -0.525645L11.7932 1.18939ZM11.667 0.490297C11.6715 0.25121 11.7235 0.0153997 11.8197 -0.20349L16.0914 1.6755C16.2436 1.3296 16.3256 0.956949 16.3328 0.579125L11.667 0.490297ZM11.8197 -0.20349C11.916 -0.422385 12.0548 -0.620015 12.2279 -0.784943L15.4464 2.59434C15.72 2.33372 15.9393 2.02141 16.0914 1.6755L11.8197 -0.20349ZM12.21 -0.767622L5.73869 5.52905L8.99309 8.87369L15.4644 2.57702L12.21 -0.767622ZM5.73874 5.529C6.07638 5.20048 6.52889 5.01667 7 5.01667L7 9.68333C7.74444 9.68333 8.45949 9.39287 8.99304 8.87374L5.73874 5.529ZM7 5.01667C7.47111 5.01667 7.92362 5.20048 8.26126 5.529L5.00696 8.87374C5.54051 9.39287 6.25556 9.68333 7 9.68333L7 5.01667ZM8.26131 5.52905L1.79004 -0.767622L-1.46436 2.57702L5.00691 8.87369L8.26131 5.52905ZM1.77205 -0.784943C1.94523 -0.620003 2.08397 -0.422368 2.18025 -0.20349L-2.09142 1.6755C-1.93927 2.0214 -1.72003 2.3337 -1.44637 2.59434L1.77205 -0.784943ZM2.18025 -0.20349C2.27654 0.0154098 2.32845 0.251222 2.333 0.490297L-2.33282 0.579125C-2.32562 0.956938 -2.24358 1.32958 -2.09142 1.6755L2.18025 -0.20349ZM2.333 0.490297C2.33756 0.729382 2.29465 0.966997 2.20677 1.18939L-2.13333 -0.525645C-2.27221 -0.174197 -2.34001 0.201303 -2.33282 0.579125L2.333 0.490297ZM2.20677 1.18939C2.11889 1.41177 1.98778 1.61455 1.821 1.78596L-1.52372 -1.46837C-1.78726 -1.1975 -1.99445 -0.877076 -2.13333 -0.525645L2.20677 1.18939ZM1.821 1.78596C1.65422 1.95737 1.45511 2.09399 1.23519 2.18794L-0.598013 -2.10358C-0.945539 -1.95513 -1.26018 -1.73923 -1.52372 -1.46837L1.821 1.78596ZM1.23519 2.18794C1.01525 2.28189 0.77887 2.33128 0.539721 2.33327L0.500953 -2.33323C0.123055 -2.3301 -0.250473 -2.25204 -0.598013 -2.10358L1.23519 2.18794ZM0.539721 2.33327C0.300572 2.33526 0.0634022 2.2898 -0.158064 2.19951L1.60358 -2.12187C1.25363 -2.26454 0.878854 -2.33637 0.500953 -2.33323L0.539721 2.33327ZM-0.158064 2.19951C-0.379521 2.10923 -0.580874 1.97593 -0.750472 1.80732L2.53971 -1.50213C2.27171 -1.76857 1.95353 -1.97921 1.60358 -2.12187L-0.158064 2.19951ZM-0.732666 1.82484L5.37271 7.7661L8.62729 4.42162L2.52191 -1.51964L-0.732666 1.82484Z" fill="#828C99" mask="url(#path-1-inside-1_2281_1275)"/>
</svg>
