<svg width="24" height="20" viewBox="0 0 24 20" fill="none" xmlns="http://www.w3.org/2000/svg">
<path d="M2.11289 8.67947C8.26805 5.99838 12.3715 4.23077 14.4232 3.37666C20.2881 0.938013 21.5053 0.514474 22.3002 0.500125C22.4751 0.497321 22.8643 0.540532 23.1183 0.745869C23.3294 0.919045 23.3888 1.15325 23.4185 1.31768C23.4448 1.48195 23.4811 1.85634 23.4514 2.14859C23.1348 5.48676 21.7593 13.5874 21.06 17.3264C20.7664 18.9084 20.1825 19.4388 19.6185 19.4906C18.3914 19.6034 17.4612 18.6805 16.2737 17.9023C14.4166 16.6841 13.3677 15.9261 11.5633 14.7377C9.47863 13.3641 10.8311 12.6091 12.0185 11.3754C12.3286 11.0525 17.7317 6.13922 17.834 5.69358C17.8471 5.63784 17.8603 5.43003 17.735 5.32051C17.6129 5.21067 17.4315 5.24828 17.2996 5.27796C17.1116 5.32019 14.1461 7.28219 8.39339 11.1636C7.55226 11.7422 6.79028 12.0242 6.10418 12.0094C5.3521 11.9932 3.90072 11.5832 2.82208 11.2329C1.50265 10.8031 0.450397 10.5758 0.542758 9.84585C0.588938 9.46585 1.11341 9.07695 2.11289 8.67947Z" fill="white"/>
</svg>
